<?xml version="1.0" standalone="no"?>
<!DOCTYPE svg PUBLIC "-//W3C//DTD SVG 1.1//EN" "http://www.w3.org/Graphics/SVG/1.1/DTD/svg11.dtd" >
<svg xmlns="http://www.w3.org/2000/svg">
<metadata>Generated by IcoMoon</metadata>
<defs>
<font id="icomoon" horiz-adv-x="1024">
<font-face units-per-em="1024" ascent="960" descent="-64" />
<missing-glyph horiz-adv-x="1024" />
<glyph unicode="&#x20;" horiz-adv-x="512" d="" />
<glyph unicode="&#xe900;" glyph-name="pin" d="M902.289 839.302c-83.215 82.695-193.305 151.32-238.272 106.562-3.469-3.439-7.213-8.487-10.054-15.266-29.236-39.028-45.683-83.854-48.425-131.134l-171.772-124.855c-92.027 16.215-184.719-1.927-262.388-50.363-22.676-14.162-34.957-40.711-31.279-67.669 15.29-111.186 63.377-211.994 133.887-292.698l-267.766-288.759c-8.511-9.183-8.263-23.459 0.591-32.3 4.54-4.547 10.488-6.818 16.433-6.818 5.675 0 11.35 2.068 15.82 6.229l288.358 268.146c80.596-70.606 181.261-118.752 292.285-134.055 3.201-0.454 6.377-0.659 9.535-0.659 23.47 0 45.58 11.935 58.041 31.983 36.977 59.441 56.52 127.77 56.52 197.623 0 21.772-2.483 43.907-6.428 65.991l124.652 171.133c51.251 2.917 99.685 21.443 140.734 55.364 2.208 1.529 4.813 2.335 6.779 4.287 6.604 6.545 14.459 18.504 14.459 38.302 0 47.409-47.758 125.514-121.711 198.956z" />
<glyph unicode="&#xe901;" glyph-name="phonebook" d="M896 832h-96v96c0 17.664-14.336 32-32 32h-576c-52.928 0-96-43.072-96-96v-800c0-70.592 57.408-128 128-128h672c17.664 0 32 14.336 32 32v832c0 17.664-14.336 32-32 32zM192 832c-17.664 0-32 14.336-32 32s14.336 32 32 32h544v-64h-544zM800 108.8c0-9.6-4.288-18.688-11.776-24.832-5.76-4.672-12.928-7.168-20.224-7.168-2.112 0-4.288 0.192-6.464 0.64-289.92 59.392-504.64 297.024-534.208 591.36-0.896 9.024 2.048 17.92 8.128 24.64s14.72 10.56 23.744 10.56h128.64c16.064 0 29.696-11.968 31.744-27.968 6.592-51.648 20.928-100.672 42.56-145.728 3.712-7.68 4.16-16.512 1.344-24.576s-8.832-14.592-16.576-18.176l-86.272-40.768c48.064-89.408 117.888-165.248 203.136-220.608l47.936 82.944c4.224 7.36 11.264 12.736 19.456 14.912 8.448 1.984 17.024 0.896 24.32-3.264 37.568-21.824 78.208-38.656 120.768-49.856 14.016-3.648 23.744-16.384 23.744-30.912v-131.2z" />
<glyph unicode="&#xe902;" glyph-name="calendar" d="M912 832h-80v32c0 35.346-28.654 64-64 64s-64-28.654-64-64v0-32h-128v32c0 35.346-28.654 64-64 64s-64-28.654-64-64v0-32h-128v32c0 35.346-28.654 64-64 64s-64-28.654-64-64v0-32h-80c-44.183 0-80-35.817-80-80v0-640c0-44.183 35.817-80 80-80v0h448c8.837 0 16 7.163 16 16s-7.163 16-16 16v0h-448c-26.477 0.082-47.918 21.523-48 47.992v496.008h896v-272c0-8.837 7.163-16 16-16s16 7.163 16 16v0 416c0 44.183-35.817 80-80 80v0zM736 864c0 17.673 14.327 32 32 32s32-14.327 32-32v0-96c0-17.673-14.327-32-32-32s-32 14.327-32 32v0zM480 864c0 17.673 14.327 32 32 32s32-14.327 32-32v0-96c0-17.673-14.327-32-32-32s-32 14.327-32 32v0zM224 864c0 17.673 14.327 32 32 32s32-14.327 32-32v0-96c0-17.673-14.327-32-32-32s-32 14.327-32 32v0zM960 640h-896v112c0.082 26.477 21.523 47.918 47.992 48h80.008v-32c0-35.346 28.654-64 64-64s64 28.654 64 64v0 32h128v-32c0-35.346 28.654-64 64-64s64 28.654 64 64v0 32h128v-32c0-35.346 28.654-64 64-64s64 28.654 64 64v0 32h80c26.477-0.082 47.918-21.523 48-47.992v-0.008zM480 496c0 17.673-14.327 32-32 32v0h-64c-17.673 0-32-14.327-32-32v0-48c0-17.673 14.327-32 32-32v0h64c17.673 0 32 14.327 32 32v0zM384 448v48h64v-48zM288 496c0 17.673-14.327 32-32 32v0h-64c-17.673 0-32-14.327-32-32v0-48c0-17.673 14.327-32 32-32v0h64c17.673 0 32 14.327 32 32v0zM192 448v48h64v-48zM832 416c17.673 0 32 14.327 32 32v0 48c0 17.673-14.327 32-32 32v0h-64c-17.673 0-32-14.327-32-32v0-48c0-17.673 14.327-32 32-32v0zM768 496h64v-48h-64zM480 352c0 17.673-14.327 32-32 32v0h-64c-17.673 0-32-14.327-32-32v0-48c0-17.673 14.327-32 32-32v0h64c17.673 0 32 14.327 32 32v0zM384 304v48h64v-48zM288 352c0 17.673-14.327 32-32 32v0h-64c-17.673 0-32-14.327-32-32v0-48c0-17.673 14.327-32 32-32v0h64c17.673 0 32 14.327 32 32v0zM192 304v48h64v-48zM448 240h-64c-17.673 0-32-14.327-32-32v0-48c0-17.673 14.327-32 32-32v0h64c17.673 0 32 14.327 32 32v0 48c0 17.673-14.327 32-32 32v0zM384 160v48h64v-48zM576 416h64c17.673 0 32 14.327 32 32v0 48c0 17.673-14.327 32-32 32v0h-64c-17.673 0-32-14.327-32-32v0-48c0-17.673 14.327-32 32-32v0zM576 496h64v-48h-64zM544 304c0-17.673 14.327-32 32-32v0c8.837 0 16 7.163 16 16s-7.163 16-16 16v0 48h64c8.837 0 16 7.163 16 16s-7.163 16-16 16v0h-64c-17.673 0-32-14.327-32-32v0zM256 240h-64c-17.673 0-32-14.327-32-32v0-48c0-17.673 14.327-32 32-32v0h64c17.673 0 32 14.327 32 32v0 48c0 17.673-14.327 32-32 32v0zM192 160v48h64v-48zM784 384c-114.875 0-208-93.125-208-208s93.125-208 208-208c114.875 0 208 93.125 208 208v0c-0.137 114.82-93.18 207.863-207.987 208h-0.013zM784 0c-97.202 0-176 78.798-176 176s78.798 176 176 176c97.202 0 176-78.798 176-176v0c-0.118-97.155-78.845-175.882-175.989-176h-0.011zM876.448 243.072l-124.448-124.448-56.56 56.576c-2.874 2.779-6.795 4.491-11.115 4.491-8.837 0-16-7.163-16-16 0-4.321 1.712-8.241 4.496-11.12l67.868-67.884c2.895-2.894 6.895-4.685 11.312-4.685s8.417 1.79 11.312 4.685l135.76 135.76c2.779 2.874 4.491 6.795 4.491 11.115 0 8.837-7.163 16-16 16-4.321 0-8.241-1.712-11.12-4.496l0.004 0.004z" />
<glyph unicode="&#xe903;" glyph-name="login" d="M437.336 480h-405.336c-17.664 0-32 14.336-32 32s14.336 32 32 32h405.336c17.664 0 32-14.336 32-32s-14.336-32-32-32zM277.336 320c-8.195 0-16.383 3.117-22.617 9.383-12.5 12.508-12.5 32.773 0 45.273l137.391 137.383-137.391 137.344c-12.5 12.508-12.5 32.773 0 45.273s32.766 12.5 45.273 0l160-160c12.5-12.5 12.5-32.766 0-45.273l-160-160c-6.273-6.266-14.469-9.383-22.656-9.383zM682.664-64c-47.063 0-85.328 38.273-85.328 85.336v768c0 36.477 23.211 69.031 57.766 81.023l256.344 85.461c57.344 17.578 112.555-24.961 112.555-81.156v-768c0-36.438-23.211-68.945-57.727-80.977l-256.43-85.508c-9.344-2.898-18-4.18-27.18-4.18zM938.664 896c-2.773 0-5.117-0.344-7.633-1.109l-255.273-85.117c-8.367-2.906-14.422-11.352-14.422-20.438v-768c0-14.555 15.781-24.367 28.969-20.227l255.273 85.117c8.32 2.906 14.422 11.352 14.422 20.438v768c0 11.734-9.555 21.336-21.336 21.336zM373.336 746.664c-17.664 0-32 14.336-32 32v64c0 64.727 52.602 117.336 117.328 117.336h480c17.664 0 32-14.336 32-32s-14.336-32-32-32h-480c-29.398 0-53.328-23.938-53.328-53.336v-64c0-17.664-14.336-32-32-32zM629.336 64h-170.672c-64.727 0-117.328 52.609-117.328 117.336v64c0 17.664 14.336 32 32 32s32-14.336 32-32v-64c0-29.398 23.93-53.336 53.328-53.336h170.672c17.664 0 32-14.336 32-32s-14.336-32-32-32z" />
<glyph unicode="&#xe904;" glyph-name="success" d="M512 960c-282.309 0-512-229.671-512-512s229.691-512 512-512 512 229.671 512 512-229.691 512-512 512zM797.44 618.752l-315.077-354.462c-7.759-8.724-18.57-13.214-29.46-13.214-8.645 0-17.329 2.836-24.596 8.625l-196.923 157.538c-16.975 13.568-19.732 38.361-6.144 55.355 13.568 16.994 38.38 19.751 55.355 6.164l167.719-134.164 290.245 326.518c14.415 16.266 39.345 17.723 55.591 3.269 16.266-14.474 17.743-39.365 3.289-55.631z" />
<glyph unicode="&#xe905;" glyph-name="info" d="M511.999 960c-282.878 0-511.999-229.121-511.999-511.999s229.121-511.999 511.999-511.999 512.001 229.118 512.001 511.999-229.121 511.999-512.001 511.999zM563.2 192.001h-102.401v307.2h102.401v-307.2zM563.2 601.601h-102.401v102.401h102.401v-102.401z" />
<glyph unicode="&#xe906;" glyph-name="attention" d="M512 960c-282.334 0-512-229.688-512-512s229.666-512 512-512 512 229.688 512 512-229.666 512-512 512zM512 106.666c-23.542 0-42.666 19.146-42.666 42.666s19.126 42.666 42.666 42.666 42.666-19.146 42.666-42.666c0-23.52-19.124-42.666-42.666-42.666zM554.666 256c0-11.792-9.542-21.334-21.334-21.334h-42.666c-11.792 0-21.334 9.542-21.334 21.334v512c0 11.792 9.542 21.334 21.334 21.334h42.666c11.792 0 21.334-9.542 21.334-21.334v-512z" />
<glyph unicode="&#xe907;" glyph-name="warning" d="M1014.666 110.792c0 0 0 0-0.020 0.020-68.17 139.834-182.446 338.168-283.262 513.146-52.752 91.584-102.588 178.062-138.61 243.792-17 31.042-47.21 49.584-80.796 49.584s-63.794-18.542-80.794-49.584c-36.044-65.77-85.9-152.334-138.714-243.98-100.754-174.936-214.988-373.186-283.136-512.978-6.188-12.73-9.334-26.208-9.334-40.022 0-50.792 41.022-92.104 91.462-92.104h841.076c50.44 0 91.462 41.312 91.462 92.104 0 13.814-3.146 27.292-9.334 40.022zM512 63.98c-23.52 0-42.666 19.146-42.666 42.666s19.146 42.666 42.666 42.666 42.666-19.146 42.666-42.666c0-23.52-19.146-42.666-42.666-42.666zM554.666 213.312c0-11.792-9.542-21.334-21.334-21.334h-42.666c-11.792 0-21.334 9.542-21.334 21.334v469.334c0 11.792 9.542 21.334 21.334 21.334h42.666c11.792 0 21.334-9.542 21.334-21.334v-469.334z" />
<glyph unicode="&#xe908;" glyph-name="settings" d="M512 692.781c-134.969 0-244.781-109.813-244.781-244.781s109.813-244.781 244.781-244.781 244.781 109.813 244.781 244.781-109.813 244.781-244.781 244.781zM512 264.414c-101.227 0-183.586 82.359-183.586 183.586s82.359 183.586 183.586 183.586 183.586-82.359 183.586-183.586-82.359-183.586-183.586-183.586zM999.906 564.594l-78.703 17.109c-6.844 20.953-15.32 41.391-25.328 61.078l43.57 67.773c7.781 12.109 6.070 28.008-4.102 38.18l-122.609 122.609c-10.172 10.172-26.070 11.883-38.18 4.102l-67.773-43.57c-19.688 10.008-40.125 18.484-61.078 25.328l-17.109 78.703c-3.055 14.063-15.508 24.094-29.898 24.094h-173.391c-14.391 0-26.844-10.031-29.898-24.094l-17.109-78.703c-20.953-6.844-41.391-15.32-61.078-25.328l-67.773 43.57c-12.109 7.781-28.008 6.070-38.18-4.102l-122.609-122.609c-10.172-10.172-11.883-26.070-4.102-38.18l43.57-67.773c-10.008-19.688-18.484-40.125-25.328-61.078l-78.703-17.109c-14.063-3.063-24.094-15.508-24.094-29.898v-173.391c0-14.391 10.031-26.836 24.094-29.898l78.703-17.109c6.844-20.953 15.32-41.391 25.328-61.078l-43.57-67.773c-7.781-12.109-6.070-28.008 4.102-38.18l122.609-122.609c10.172-10.172 26.070-11.883 38.18-4.102l67.773 43.57c19.688-10.008 40.125-18.484 61.078-25.328l17.109-78.703c3.055-14.063 15.508-24.094 29.898-24.094h173.391c14.391 0 26.844 10.031 29.898 24.094l17.109 78.703c20.953 6.844 41.391 15.32 61.078 25.328l67.773-43.57c12.109-7.781 28.008-6.078 38.18 4.102l122.609 122.609c10.172 10.172 11.883 26.070 4.102 38.18l-43.57 67.773c10.008 19.688 18.484 40.125 25.328 61.078l78.703 17.109c14.063 3.063 24.094 15.508 24.094 29.898v173.391c0 14.391-10.031 26.836-24.094 29.898zM962.805 385.969l-72.164-15.688c-11.086-2.414-19.93-10.758-22.977-21.68-7.93-28.445-19.336-55.953-33.898-81.758-5.578-9.883-5.234-22.039 0.906-31.586l39.961-62.156-87.727-87.734-62.164 39.961c-9.547 6.141-21.703 6.484-31.578 0.906-25.813-14.563-53.32-25.969-81.766-33.898-10.922-3.047-19.266-11.891-21.68-22.977l-15.688-72.164h-124.063l-15.688 72.164c-2.414 11.086-10.758 19.93-21.68 22.977-28.445 7.93-55.953 19.336-81.758 33.898-9.883 5.578-22.039 5.227-31.586-0.906l-62.156-39.961-87.727 87.734 39.953 62.156c6.141 9.547 6.492 21.703 0.914 31.586-14.563 25.805-25.969 53.313-33.906 81.758-3.047 10.922-11.883 19.266-22.969 21.68l-72.172 15.688v124.063l72.164 15.688c11.086 2.414 19.93 10.758 22.977 21.68 7.93 28.445 19.336 55.953 33.898 81.758 5.578 9.883 5.234 22.039-0.906 31.586l-39.961 62.156 87.727 87.734 62.164-39.961c9.547-6.141 21.703-6.484 31.578-0.906 25.813 14.563 53.32 25.969 81.766 33.898 10.922 3.047 19.266 11.891 21.68 22.977l15.688 72.164h124.063l15.688-72.164c2.414-11.086 10.758-19.93 21.68-22.977 28.445-7.93 55.953-19.336 81.758-33.898 9.883-5.578 22.039-5.227 31.586 0.906l62.156 39.961 87.727-87.734-39.953-62.156c-6.141-9.547-6.492-21.703-0.914-31.586 14.57-25.805 25.969-53.313 33.906-81.758 3.047-10.922 11.883-19.266 22.969-21.68l72.172-15.688z" />
<glyph unicode="&#xe909;" glyph-name="tasks" d="M811.863 825.837h-92.64v41.444c0 13.409-14.627 19.503-28.035 19.503h-71.917c-17.065 48.758-59.729 73.137-108.487 73.137-48.222 1.813-92.083-27.755-108.487-73.137h-70.699c-13.409 0-26.817-6.094-26.817-19.503v-41.444h-92.643c-54.899-0.586-99.812-43.894-102.393-98.734v-698.46c0-53.635 48.758-92.64 102.393-92.64h599.725c53.635 0 102.393 39.006 102.393 92.64v698.457c-2.58 54.843-47.494 98.151-102.393 98.737zM353.536 838.025h67.043c11.703 1.428 21.103 10.331 23.161 21.941 7.219 31.437 34.799 54.003 67.043 54.852 31.946-0.968 59.11-23.605 65.823-54.852 2.186-12.011 12.207-21.029 24.379-21.941h69.481v-97.516h-316.931v97.516zM865.497 28.64c0-26.817-26.817-43.882-53.635-43.882h-599.725c-26.817 0-53.635 17.065-53.635 43.882v698.46c2.487 27.914 25.613 49.465 53.635 49.976h92.64v-62.167c1.288-13.658 13.117-23.875 26.817-23.161h359.59c13.952-0.763 26.152 9.314 28.035 23.161v62.169h92.64c28.019-0.513 51.147-22.062 53.635-49.976v-698.462zM418.141 415.048c-9.144 9.638-24.323 10.182-34.132 1.218l-78.014-74.355-32.911 34.132c-9.144 9.638-24.323 10.18-34.132 1.218-9.442-9.893-9.442-25.457 0-35.35l49.976-51.196c4.326-4.844 10.574-7.522 17.065-7.314 6.43 0.091 12.564 2.72 17.065 7.314l95.078 90.202c9.426 8.647 10.056 23.299 1.407 32.722-0.443 0.492-0.912 0.961-1.402 1.409zM767.981 362.633h-280.359c-13.465 0-24.379-10.914-24.379-24.379s10.914-24.379 24.379-24.379h280.359c13.465 0 24.379 10.914 24.379 24.379s-10.914 24.379-24.379 24.379zM418.141 610.081c-9.144 9.638-24.323 10.182-34.132 1.218l-78.014-74.355-32.911 34.132c-9.144 9.638-24.323 10.182-34.132 1.218-9.442-9.893-9.442-25.457 0-35.35l49.976-51.196c4.326-4.844 10.574-7.522 17.065-7.314 6.43 0.091 12.564 2.72 17.065 7.314l95.078 90.202c9.426 8.647 10.056 23.299 1.407 32.722-0.443 0.492-0.912 0.961-1.402 1.409zM767.981 557.666h-280.359c-13.465 0-24.379-10.914-24.379-24.379s10.914-24.379 24.379-24.379h280.359c13.465 0 24.379 10.914 24.379 24.379s-10.914 24.379-24.379 24.379zM418.141 220.017c-9.144 9.638-24.323 10.18-34.132 1.218l-78.014-74.355-32.911 34.132c-9.144 9.638-24.323 10.18-34.132 1.218-9.442-9.893-9.442-25.457 0-35.35l49.976-51.196c4.326-4.844 10.574-7.522 17.065-7.314 6.43 0.091 12.564 2.72 17.065 7.314l95.078 90.202c9.426 8.647 10.056 23.299 1.407 32.722-0.443 0.49-0.912 0.959-1.402 1.409zM767.981 167.6h-280.359c-13.465 0-24.379-10.914-24.379-24.379s10.914-24.379 24.379-24.379h280.359c13.465 0 24.379 10.914 24.379 24.379s-10.914 24.379-24.379 24.379z" />
<glyph unicode="&#xe90a;" glyph-name="mail" d="M938.666 832h-853.332c-47.064 0-85.334-38.27-85.334-85.334v-597.334c0-47.062 38.27-85.332 85.334-85.332h853.334c47.062 0 85.332 38.27 85.332 85.334v597.332c0 47.064-38.27 85.334-85.334 85.334zM85.334 789.334h853.334c3.144 0 5.914-1.146 8.864-1.794-73.878-67.614-318.846-291.718-404.572-368.956-6.708-6.042-17.52-13.25-30.958-13.25s-24.25 7.208-30.98 13.27c-85.718 77.226-330.7 301.342-404.566 368.932 2.956 0.648 5.732 1.798 8.878 1.798zM42.666 149.334v597.332c0 4.18 1.26 7.972 2.388 11.792 56.544-51.752 227.472-208.12 338.304-308.906-110.472-94.894-281.444-256.99-338.438-311.338-1.006 3.628-2.254 7.176-2.254 11.12zM938.666 106.666h-853.332c-3.408 0-6.438 1.188-9.62 1.948 58.894 56.144 230.954 219.172 339.484 312.018 14.148-12.834 27.072-24.536 37.26-33.716 17.584-15.876 38.166-24.25 59.542-24.25s41.958 8.376 59.52 24.23c10.192 9.184 23.126 20.896 37.282 33.736 108.536-92.836 280.572-255.852 339.484-312.018-3.182-0.76-6.208-1.948-9.62-1.948zM981.334 149.334c0-3.942-1.248-7.492-2.252-11.12-57.016 54.376-227.968 216.454-338.438 311.336 110.836 100.786 281.738 257.14 338.302 308.912 1.128-3.82 2.388-7.614 2.388-11.794v-597.334z" />
<glyph unicode="&#xe90b;" glyph-name="logout" d="M991.969 479.983h-405.323c-17.664 0-31.999 14.335-31.999 31.999s14.335 31.999 31.999 31.999h405.323c17.664 0 31.999-14.335 31.999-31.999s-14.335-31.999-31.999-31.999zM831.974 319.988c-8.195 0-16.382 3.117-22.616 9.383-12.5 12.507-12.5 32.772 0 45.272l137.386 137.379-137.386 137.386c-12.5 12.5-12.5 32.765 0 45.264 12.507 12.507 32.772 12.507 45.272 0l159.995-159.995c12.5-12.5 12.5-32.765 0-45.264l-159.995-159.995c-6.273-6.312-14.46-9.429-22.656-9.429zM341.325-64c-9.133 0-17.796 1.281-26.452 3.969l-256.765 85.544c-34.936 12.203-58.108 44.756-58.108 81.146v767.976c0 47.061 38.272 85.333 85.333 85.333 9.125 0 17.789-1.281 26.452-3.969l256.758-85.544c34.944-12.203 58.108-44.756 58.108-81.146v-767.976c0-47.061-38.264-85.333-85.325-85.333zM85.333 895.97c-11.734 0-21.335-9.601-21.335-21.335v-767.976c0-9.086 6.101-17.531 14.804-20.562l255.562-85.161c1.836-0.594 4.226-0.937 6.961-0.937 11.734 0 21.327 9.601 21.327 21.335v767.976c0 9.086-6.101 17.531-14.804 20.562l-255.562 85.161c-1.836 0.594-4.226 0.937-6.953 0.937zM650.644 618.643c-17.664 0-31.999 14.335-31.999 31.999v191.994c0 29.398-23.929 53.334-53.326 53.334h-479.985c-17.664 0-31.999 14.335-31.999 31.999s14.335 31.999 31.999 31.999h479.985c64.725 0 117.324-52.608 117.324-117.332v-191.994c0-17.664-14.335-31.999-31.999-31.999zM565.318 63.996h-170.667c-17.664 0-31.999 14.335-31.999 31.999s14.335 31.999 31.999 31.999h170.667c29.398 0 53.326 23.937 53.326 53.334v191.994c0 17.664 14.335 31.999 31.999 31.999s31.999-14.335 31.999-31.999v-191.994c0-64.725-52.6-117.332-117.324-117.332z" />
<glyph unicode="&#xe90c;" glyph-name="home" d="M1006.802 502.232l-86.506 78.822v261.366c0 16.63-13.482 30.114-30.114 30.114h-208.23c-16.63 0-30.114-13.482-30.114-30.114v-16.748l-104.472 95.194c-20.166 18.378-50.576 18.376-70.734 0.002l-459.436-418.638c-16.152-14.72-21.49-37.4-13.598-57.778 7.894-20.378 27.114-33.544 48.968-33.544h73.378v-419.442c0-16.63 13.482-30.114 30.114-30.114h251.826c16.63 0 30.114 13.482 30.114 30.114v254.672h148.002v-254.674c0-16.63 13.482-30.114 30.114-30.114h251.816c16.63 0 30.114 13.482 30.112 30.114v419.442h73.394c21.852 0 41.074 13.168 48.968 33.544 7.89 20.38 2.554 43.060-13.602 57.782zM867.93 471.134c-16.63 0-30.114-13.482-30.114-30.114v-419.442h-191.586v254.674c0 16.63-13.484 30.114-30.114 30.114h-208.232c-16.63 0-30.114-13.482-30.114-30.114v-254.674h-191.6v419.442c0 16.63-13.482 30.114-30.114 30.114h-83.566l439.512 400.48 149.672-136.382c8.816-8.032 21.542-10.102 32.448-5.288 10.908 4.82 17.946 15.624 17.946 27.548v54.814h148.004v-244.552c0-8.474 3.568-16.552 9.832-22.26l81.606-74.36h-83.58z" />
<glyph unicode="&#xe90d;" glyph-name="user" d="M874.040 298.040c-55.766 55.764-122.142 97.046-194.562 122.036 77.564 53.422 128.522 142.828 128.522 243.924 0 163.214-132.786 296-296 296s-296-132.786-296-296c0-101.096 50.958-190.502 128.524-243.924-72.42-24.99-138.796-66.272-194.562-122.036-96.704-96.706-149.962-225.28-149.962-362.040h80c0 238.206 193.794 432 432 432s432-193.794 432-432h80c0 136.76-53.258 265.334-149.96 362.040zM512 448c-119.102 0-216 96.896-216 216s96.898 216 216 216c119.102 0 216-96.896 216-216s-96.898-216-216-216z" />
<glyph unicode="&#xe90e;" glyph-name="search" d="M621.668 306.332c-44.476-31.692-98.895-50.332-157.668-50.332-150.221 0-272 121.779-272 272s121.779 272 272 272c150.221 0 272-121.779 272-272 0-58.773-18.641-113.192-50.332-157.668l178.714-178.714c17.606-17.606 17.46-45.778-0.006-63.244l-0.75-0.75c-17.421-17.421-45.781-17.469-63.244-0.006l-178.714 178.714zM464 320c114.875 0 208 93.125 208 208s-93.125 208-208 208c-114.875 0-208-93.125-208-208s93.125-208 208-208v0z" />
<glyph unicode="&#xe90f;" glyph-name="planning_meeting" d="M263.645 741.325c-19.204 19.848-45.666 31.021-73.284 30.942h-5.257c-27.59 0.055-54.014-11.115-73.199-30.942-18.048-18.556-27.631-43.74-26.487-69.598l1.997-45.943c3.025-52.574 47.016-93.38 99.669-92.45h1.297c52.653-0.93 96.644 39.876 99.669 92.45l2.082 45.943c1.143 25.858-8.439 51.042-26.487 69.598zM253.951 627.201c-2.313-34.268-31.236-60.616-65.57-59.733h-1.297c-34.334-0.883-63.257 25.466-65.57 59.733l-0.597 13.943c32.533 1.449 63.772 13.171 89.224 33.485 10.496-15.522 26.34-26.635 44.51-31.215l-0.7-16.213zM232.55 707.875c-0.949 7.279-6.449 13.135-13.653 14.541-7.179 1.485-14.496-1.822-18.125-8.192-0.222-0.358-21.402-33.86-81.169-38.98-0.147 15.812 5.935 31.046 16.93 42.411 12.742 13.131 30.274 20.523 48.572 20.48h5.257c18.298 0.043 35.829-7.349 48.572-20.48 9.956-10.374 15.866-23.974 16.657-38.332-11.81 5.278-20.378 15.893-23.040 28.552zM929.244 331.726c-19.204 19.848-45.666 31.021-73.284 30.942h-5.257c-27.59 0.055-54.014-11.115-73.199-30.942-18.048-18.556-27.633-43.74-26.487-69.598l1.997-45.943c3.025-52.574 47.016-93.38 99.669-92.45h1.297c52.653-0.93 96.644 39.876 99.669 92.45l2.082 45.943c1.143 25.858-8.439 51.042-26.487 69.598zM921.598 263.511l-2.048-45.909c-2.313-34.268-31.236-60.616-65.57-59.733h-1.297c-34.334-0.883-63.257 25.466-65.57 59.733l-2.048 45.995c-0.659 16.535 5.513 32.612 17.067 44.459 12.742 13.131 30.274 20.523 48.572 20.48h5.257c18.298 0.043 35.829-7.349 48.572-20.48 11.575-11.868 17.749-27.981 17.067-44.544zM527.218 711.8c-18.312 17.713-47.373 17.713-65.685 0l-190.532-190.532c-3.204-3.204-7.552-5.005-12.083-5.001h-173.585c-47.104-0.055-85.278-38.229-85.333-85.333v-238.933c0-28.277 22.923-51.2 51.2-51.2 5.813 0 11.584 0.988 17.067 2.918v-19.985c0-9.425 7.642-17.067 17.067-17.067h204.8c9.425 0 17.067 7.642 17.067 17.067v276.718c-0.002 4.318 1.632 8.478 4.574 11.639l216.558 232.908c18.14 18.752 17.64 48.659-1.114 66.799zM503.958 668.867c-0.062-0.060-0.124-0.119-0.186-0.177l-217.053-233.369c-8.789-9.483-13.668-21.937-13.653-34.867v-259.652h-170.666v255.999c0 9.425-7.642 17.067-17.067 17.067s-17.067-7.642-17.067-17.067v-204.8c0-9.425-7.642-17.067-17.067-17.067s-17.067 7.642-17.067 17.067v238.933c0 28.277 22.923 51.2 51.2 51.2h173.585c13.591-0.043 26.635 5.359 36.215 15.002l190.532 190.532c5.195 4.928 13.34 4.928 18.534 0 5.124-5.259 5.018-13.677-0.241-18.801zM187.733 465.068c-9.425 0-17.067-7.642-17.067-17.067v-204.8c0-9.425 7.642-17.067 17.067-17.067s17.067 7.642 17.067 17.067v204.8c0 9.425-7.642 17.067-17.067 17.067zM553.693 331.726c-19.185 19.827-45.608 30.997-73.199 30.942h-5.257c-27.59 0.055-54.014-11.115-73.199-30.942-18.048-18.556-27.633-43.74-26.487-69.598l1.997-45.943c3.025-52.574 47.016-93.38 99.669-92.45h1.297c52.653-0.93 96.644 39.876 99.669 92.45l1.997 45.943c1.146 25.858-8.439 51.042-26.487 69.598zM546.132 263.511l-2.048-45.909c-2.313-34.268-31.236-60.616-65.57-59.733h-1.297c-34.334-0.883-63.257 25.466-65.57 59.733l-2.048 45.995c-0.659 16.535 5.513 32.612 17.067 44.459 12.742 13.131 30.274 20.523 48.572 20.48h5.257c18.298 0.043 35.829-7.349 48.572-20.48 11.575-11.868 17.749-27.981 17.067-44.544zM566.049 106.668h-176.367c-45.534-0.047-82.436-36.949-82.483-82.483v-71.117c0-9.425 7.642-17.067 17.067-17.067s17.067 7.642 17.067 17.067v71.117c0.028 26.692 21.66 48.322 48.35 48.35h176.367c26.692-0.028 48.322-21.658 48.35-48.35v-71.117c0-9.425 7.642-17.067 17.067-17.067s17.067 7.642 17.067 17.067v71.117c-0.047 45.534-36.949 82.436-82.483 82.483zM941.515 106.668h-176.367c-45.534-0.047-82.436-36.949-82.483-82.483v-71.117c0-9.425 7.642-17.067 17.067-17.067s17.067 7.642 17.067 17.067v71.117c0.028 26.692 21.66 48.322 48.35 48.35h176.367c26.692-0.028 48.322-21.658 48.35-48.35v-71.117c0-9.425 7.642-17.067 17.067-17.067s17.067 7.642 17.067 17.067v71.117c-0.047 45.534-36.949 82.436-82.483 82.483zM973.651 960h-599.039c-28.026-0.273-50.545-23.174-50.347-51.2v-255.999c0-9.425 7.642-17.067 17.067-17.067s17.067 7.642 17.067 17.067v204.8h631.465v-409.599c0.22-9.184-7.029-16.815-16.213-17.067h-582.399c-9.425 0-17.067-7.642-17.067-17.067s7.642-17.067 17.067-17.067h582.399c28.026 0.273 50.545 23.174 50.347 51.2v460.799c0.198 28.026-22.321 50.927-50.347 51.2zM989.865 891.733h-631.465v17.067c-0.22 9.184 7.029 16.815 16.213 17.067h599.039c9.184-0.252 16.433-7.883 16.213-17.067v-17.067zM938.665 742.4c-9.425 0-17.067-7.642-17.067-17.067v-243.199c0-9.425 7.642-17.067 17.067-17.067s17.067 7.642 17.067 17.067v243.199c0 9.425-7.642 17.067-17.067 17.067zM870.398 635.734c-9.425 0-17.067-7.642-17.067-17.067v-136.533c0-9.425 7.642-17.067 17.067-17.067s17.067 7.642 17.067 17.067v136.533c0 9.425-7.642 17.067-17.067 17.067zM802.132 669.867c-9.425 0-17.067-7.642-17.067-17.067v-170.666c0-9.425 7.642-17.067 17.067-17.067s17.067 7.642 17.067 17.067v170.666c0 9.425-7.642 17.067-17.067 17.067zM733.865 567.467c-9.425 0-17.067-7.642-17.067-17.067v-68.267c0-9.425 7.642-17.067 17.067-17.067s17.067 7.642 17.067 17.067v68.267c0 9.425-7.642 17.067-17.067 17.067zM948.137 820.6c-7.842 5.231-18.44 3.115-23.671-4.727l-58.265-87.381-53.828 40.363c-7.511 5.694-18.216 4.218-23.91-3.294-0.649-0.855-1.214-1.769-1.69-2.731l-66.457-132.932-64.956-48.776c-7.541-5.655-9.069-16.352-3.413-23.893s16.352-9.069 23.893-3.413l68.267 51.2c2.15 1.583 3.904 3.646 5.12 6.025l59.102 118.238 51.831-38.929c7.539-5.655 18.238-4.13 23.893 3.411 0.19 0.252 0.371 0.51 0.546 0.77l68.267 102.4c5.231 7.842 3.115 18.44-4.727 23.671zM614.399 823.467h-204.8c-9.425 0-17.067-7.642-17.067-17.067s7.642-17.067 17.067-17.067h204.8c9.425 0 17.067 7.642 17.067 17.067s-7.642 17.067-17.067 17.067zM716.799 823.467h-34.133c-9.425 0-17.067-7.642-17.067-17.067s7.642-17.067 17.067-17.067h34.133c9.425 0 17.067 7.642 17.067 17.067s-7.642 17.067-17.067 17.067z" />
<glyph unicode="&#xe910;" glyph-name="teleconference" d="M948.39 960h-746.014c-8.286 0-15-6.716-15-15s6.714-15 15-15h746.016c25.148 0 45.608-20.46 45.608-45.61v-570.894h-57.736c-8.286 0-15-6.716-15-15s6.714-15 15-15h57.736v-45.61c0-25.15-20.46-45.61-45.61-45.61h-872.78c-25.15 0-45.61 20.46-45.61 45.61v45.61h836.214c8.286 0 15 6.716 15 15s-6.714 15-15 15h-274.564v32.754c0 52.412-35.356 98.492-85.98 112.060l-109.99 29.482v42.612c38.678 23.086 64.65 65.344 64.65 113.568v155.564c0 32.78-26.668 59.448-59.448 59.448h-19.566c-6.434 21.028-26.020 36.366-49.126 36.366h-40.406c-52.832 0-95.814-42.982-95.814-95.814v-155.564c0-48.224 25.972-90.482 64.65-113.568v-42.612l-109.99-29.482c-50.626-13.568-85.98-59.65-85.98-112.060v-32.754h-34.65v570.894c0 25.15 20.46 45.61 45.61 45.61h56.64c8.286 0 15 6.716 15 15s-6.714 15-15 15h-56.64c-41.692 0-75.61-33.918-75.61-75.61v-646.504c0-41.692 33.918-75.61 75.61-75.61h307.2l-24.68-131.626h-36.040c-26.096 0-47.326-21.23-47.326-47.326s21.23-47.324 47.326-47.324h379.82c26.096 0 47.326 21.23 47.326 47.326s-21.23 47.326-47.326 47.326h-36.040l-24.68 131.626h307.2c41.692 0 75.61 33.918 75.61 75.61v646.502c0 41.692-33.918 75.61-75.61 75.61zM295.098 417.43l-43.552-33.182-19.068 64.942 30.832 8.264c4.98-17.112 16.556-31.434 31.788-40.024zM392.988 457.456l30.832-8.264-19.068-64.942-43.552 33.182c15.236 8.588 26.81 22.91 31.788 40.024zM430.33 799.536v-63.792h-21.368c-14.010 0-25.406 11.398-25.406 25.406v67.834h17.326c16.238 0 29.448-13.21 29.448-29.448zM225.97 799.536c0 36.29 29.524 65.814 65.814 65.814h40.406c11.782 0 21.366-9.584 21.366-21.366v-82.834c0-14.008-11.396-25.406-25.406-25.406h-102.18zM225.97 643.972v61.772h102.18c15.924 0 30.29 6.762 40.406 17.554 10.116-10.792 24.482-17.554 40.406-17.554h21.368v-61.772c0-56.342-45.838-102.178-102.18-102.178s-102.18 45.836-102.18 102.178zM328.15 511.792c13.036 0 25.624 1.928 37.53 5.46v-40.968c0-20.694-16.836-37.528-37.53-37.528s-37.53 16.834-37.53 37.528v40.968c11.906-3.532 24.494-5.46 37.53-5.46zM94.65 346.25c0 38.858 26.212 73.024 63.746 83.084l45.098 12.088 25.41-86.542c1.39-4.738 5.026-8.488 9.716-10.026 1.53-0.502 3.106-0.748 4.674-0.748 3.244 0 6.446 1.052 9.092 3.068l75.764 57.724 75.764-57.724c2.646-2.016 5.848-3.068 9.092-3.068 1.566 0 3.146 0.246 4.674 0.748 4.692 1.54 8.326 5.29 9.716 10.026l25.41 86.542 45.098-12.088c37.534-10.060 63.746-44.226 63.746-83.084v-32.754h-77.078v25.406c0 8.284-6.714 15-15 15s-15-6.716-15-15v-25.406h-252.844v25.406c0 8.284-6.714 15-15 15s-15-6.716-15-15v-25.406h-77.078zM635.348 30.65h-160.134c-8.286 0-15-6.716-15-15s6.714-15 15-15h226.696c9.552 0 17.326-7.772 17.326-17.326s-7.774-17.324-17.326-17.324h-379.82c-9.552 0-17.326 7.772-17.326 17.326s7.774 17.326 17.326 17.326h82.946c8.286 0 15 6.716 15 15s-6.714 15-15 15h-16.384l24.68 131.626h197.338zM619.904 420.728c2.262-1.25 4.76-1.872 7.254-1.872 2.776 0 5.546 0.77 7.982 2.3l67.050 42.146h217.914c19.41 0 35.204 15.792 35.204 35.204v361.64c0 19.412-15.792 35.204-35.204 35.204h-335.372c-19.41 0-35.204-15.792-35.204-35.204v-361.638c0-19.412 15.792-35.204 35.204-35.204h27.426v-29.448c0-5.458 2.968-10.486 7.746-13.128zM584.732 493.304c-2.87 0-5.204 2.334-5.204 5.204v361.638c0 2.87 2.334 5.204 5.204 5.204h335.374c2.87 0 5.204-2.334 5.204-5.204v-361.638c0-2.87-2.334-5.204-5.204-5.204h-222.236c-2.824 0-5.592-0.798-7.982-2.3l-47.728-30v17.302c0 8.284-6.714 15-15 15h-42.428zM633.218 796.658h238.398c8.286 0 15 6.716 15 15s-6.714 15-15 15h-238.398c-8.286 0-15-6.716-15-15s6.716-15 15-15zM633.218 732.008h238.398c8.286 0 15 6.716 15 15s-6.714 15-15 15h-238.398c-8.286 0-15-6.716-15-15s6.716-15 15-15zM633.218 673.418h135.364c8.286 0 15 6.716 15 15s-6.714 15-15 15h-135.364c-8.286 0-15-6.716-15-15s6.716-15 15-15zM871.618 703.418h-38.384c-8.286 0-15-6.716-15-15s6.714-15 15-15h38.384c8.286 0 15 6.716 15 15s-6.716 15-15 15zM871.618 638.768h-109.098c-8.286 0-15-6.716-15-15s6.714-15 15-15h109.098c8.286 0 15 6.716 15 15s-6.716 15-15 15zM633.218 608.768h64.65c8.286 0 15 6.716 15 15s-6.714 15-15 15h-64.65c-8.286 0-15-6.716-15-15s6.716-15 15-15zM788.786 544.118c8.286 0 15 6.716 15 15s-6.714 15-15 15h-155.566c-8.286 0-15-6.716-15-15s6.714-15 15-15z" />
<glyph unicode="&#xe911;" glyph-name="conference" d="M924 800h-284v32c-0.022 17.664-14.336 31.978-31.998 32h-17.602c-7.692 36.792-39.86 64.031-78.39 64.031s-70.698-27.239-78.299-63.51l-0.091-0.521h-17.62c-17.664-0.022-31.978-14.336-32-31.998v-32.002h-284c-37.538-0.043-67.957-30.462-68-67.996v-584.004c0.043-37.538 30.462-67.957 67.996-68h278.792l-26.172-91.6c-0.392-1.318-0.617-2.833-0.617-4.4 0-8.837 7.163-16 16-16 0 0 0.001 0 0.001 0h288c0 0 0.001 0 0.001 0 8.837 0 16 7.163 16 16 0 1.567-0.225 3.082-0.645 4.513l0.028-0.113-26.172 91.6h278.788c37.538 0.043 67.957 30.462 68 67.996v584.004c-0.043 37.538-30.462 67.957-67.996 68h-0.004zM816 304c-26.51 0-48 21.49-48 48s21.49 48 48 48c26.51 0 48-21.49 48-48v0c-0.032-26.497-21.503-47.968-47.997-48h-0.003zM777.6 281.846c11.085-6.198 24.322-9.848 38.411-9.848 14.081 0 27.31 3.645 38.795 10.043l-0.406-0.208c23.853-16.562 39.723-43.179 41.447-73.581l0.011-0.253h-159.714c1.798 30.641 17.647 57.239 41.143 73.639l0.313 0.207zM927.882 208c-1.632 38.625-20.134 72.621-48.281 95.015l-0.261 0.201c10.394 13.366 16.664 30.387 16.664 48.873 0 44.183-35.817 80-80 80s-80-35.817-80-80c0-18.486 6.27-35.507 16.799-49.054l-0.135 0.181c-28.352-22.64-46.834-56.61-48.538-94.942l-0.010-0.274h-32.12v272h288v-272zM816 608c-26.51 0-48 21.49-48 48s21.49 48 48 48c26.51 0 48-21.49 48-48v0c-0.032-26.497-21.503-47.968-47.997-48h-0.003zM777.6 585.84c11.080-6.191 24.31-9.837 38.391-9.837s27.311 3.646 38.797 10.045l-0.406-0.208c23.86-16.561 39.736-43.181 41.464-73.586l0.012-0.254h-159.716c1.783 30.643 17.638 57.245 41.144 73.633l0.314 0.207zM960 732v-220h-32.118c-1.634 38.624-20.136 72.62-48.281 95.015l-0.261 0.201c10.392 13.365 16.66 30.384 16.66 48.868 0 44.183-35.817 80-80 80s-80-35.817-80-80c0-18.489 6.272-35.513 16.805-49.061l-0.135 0.18c-28.366-22.624-46.854-56.596-48.541-94.933l-0.009-0.271h-32.12v256h252c19.873-0.024 35.976-16.127 36-35.998v-0.002zM608 800h-32.044c6.849 9.003 11.887 19.768 14.353 31.481l0.091 0.519h17.6zM512 896c26.51 0 48-21.49 48-48s-21.49-48-48-48c-26.51 0-48 21.49-48 48v0c0.032 26.497 21.503 47.968 47.997 48h0.003zM416 832h17.61c2.554-12.232 7.589-22.997 14.578-32.197l-0.144 0.197h-32.044zM100 768h540v-560h-128v18.706c-0.117 54.049-23.831 102.537-61.382 135.726l-0.194 0.168c8.546 15.442 13.576 33.858 13.576 53.448 0 61.856-50.144 112-112 112s-112-50.144-112-112c0-19.59 5.030-38.006 13.868-54.026l-0.292 0.577c-37.744-33.358-61.457-81.845-61.576-135.873v-18.727h-128v524c0.024 19.873 16.127 35.976 35.998 36h0.002zM352 336c-44.183 0-80 35.817-80 80s35.817 80 80 80c44.183 0 80-35.817 80-80v0c-0.051-44.162-35.838-79.949-79.995-80h-0.005zM272.814 336.868c20.247-20.305 48.249-32.868 79.185-32.868s58.938 12.563 79.182 32.865l0.003 0.003c29.963-27.361 48.717-66.562 48.816-110.144v-18.724h-256v18.706c0.098 43.6 18.851 82.8 48.698 110.057l0.116 0.105zM634.8 0h-245.59l22.858 80h37.958c7.351-27.836 32.305-48.024 61.974-48.024s54.623 20.189 61.874 47.578l0.1 0.446h37.958zM484.34 80h55.34c-5.618-9.631-15.9-16-27.67-16s-22.052 6.369-27.588 15.849l-0.082 0.151zM960 148c-0.024-19.873-16.127-35.976-35.998-36h-824.002c-19.873 0.024-35.976 16.127-36 35.998v28.002h896zM528 848c0-8.837-7.163-16-16-16s-16 7.163-16 16c0 8.837 7.163 16 16 16s16-7.163 16-16zM416 656c0-8.837-7.163-16-16-16s-16 7.163-16 16c0 8.837 7.163 16 16 16s16-7.163 16-16zM480 656c0-8.837-7.163-16-16-16s-16 7.163-16 16c0 8.837 7.163 16 16 16s16-7.163 16-16zM544 656c0-8.837-7.163-16-16-16s-16 7.163-16 16c0 8.837 7.163 16 16 16s16-7.163 16-16zM326.154 563.388c2.686-2.112 6.117-3.388 9.845-3.388 1.378 0 2.716 0.174 3.992 0.502l-0.111-0.024 62.088 15.522h126.032c44.183 0 80 35.817 80 80s-35.817 80-80 80v0h-128c-44.162-0.051-79.949-35.838-80-79.995v-80.005c0 0 0 0 0 0 0-5.108 2.393-9.656 6.12-12.586l0.034-0.026zM352 656c0.032 26.497 21.503 47.968 47.997 48h128.003c26.51 0 48-21.49 48-48s-21.49-48-48-48v0h-128c-0.001 0-0.003 0-0.004 0-1.377 0-2.712-0.174-3.987-0.502l0.111 0.024-44.12-11.030zM112 592h96c8.837 0 16 7.163 16 16v0 6.112l40.844-20.422c2.085-1.065 4.548-1.689 7.156-1.689 8.836 0 16 7.163 16 15.999v0 96c0 8.836-7.164 15.999-16 15.999-2.608 0-5.071-0.624-7.247-1.731l0.091 0.042-40.844-20.422v6.112c0 8.837-7.163 16-16 16v0h-96c-8.837 0-16-7.163-16-16v0-96c0-8.837 7.163-16 16-16v0zM256 678.112v-44.224l-32 16v12.224zM128 688h64v-64h-64zM144 464c26.51 0 48 21.49 48 48s-21.49 48-48 48c-26.51 0-48-21.49-48-48v0c0.032-26.497 21.503-47.968 47.997-48h0.003zM144 528c8.837 0 16-7.163 16-16s-7.163-16-16-16c-8.837 0-16 7.163-16 16v0c0.010 8.832 7.168 15.99 15.999 16h0.001zM144 336c26.51 0 48 21.49 48 48s-21.49 48-48 48c-26.51 0-48-21.49-48-48v0c0.032-26.497 21.503-47.968 47.997-48h0.003zM144 400c8.837 0 16-7.163 16-16s-7.163-16-16-16c-8.837 0-16 7.163-16 16v0c0.010 8.832 7.168 15.99 15.999 16h0.001z" />
<glyph unicode="&#xe912;" glyph-name="chevron" d="M711.219 80.998c13.722-13.926 13.722-36.301 0-50.125s-35.891-13.875-49.613 0l-400.896 404.89c-13.722 13.824-13.722 36.198 0 50.125l400.896 404.89c13.722 13.824 35.891 13.824 49.613 0 13.722-13.875 13.722-36.301 0-50.125l-365.619-379.853 365.619-379.802z" />
<glyph unicode="&#xe913;" glyph-name="clear, close" d="M810 664.667l-238-238 238-238-60-60-238 238-238-238-60 60 238 238-238 238 60 60 238-238 238 238z" />
<glyph unicode="&#xe914;" glyph-name="empty_box" d="M910.148 590.773l107.992 107.992c4.453 4.445 6.547 10.734 5.656 16.961-0.883 6.227-4.656 11.68-10.172 14.711l-129.828 71.289c-9.68 5.312-21.836 1.773-27.156-7.906-5.312-9.687-1.781-21.844 7.906-27.156l106.469-58.461-92.68-92.672-333.336 183.039 92.672 92.672 93.68-51.445c9.68-5.312 21.844-1.781 27.156 7.906 5.32 9.68 1.781 21.844-7.906 27.156l-106.836 58.672c-7.797 4.281-17.484 2.898-23.766-3.391l-108-108-108 108c-6.289 6.289-15.977 7.664-23.766 3.391l-369.859-203.094c-5.516-3.031-9.289-8.477-10.172-14.711-0.891-6.227 1.203-12.516 5.656-16.961l107.992-107.992-107.992-107.984c-4.453-4.453-6.547-10.734-5.656-16.969 0.883-6.227 4.656-11.68 10.172-14.703l111.766-61.375v-205.14c0-7.305 3.977-14.023 10.375-17.539l369.859-203.086c3-1.648 6.312-2.469 9.625-2.469s6.625 0.82 9.625 2.469l369.859 203.086c6.398 3.516 10.375 10.234 10.375 17.539v205.14l111.766 61.367c5.516 3.031 9.289 8.484 10.172 14.711 0.891 6.227-1.203 12.516-5.656 16.961zM512 410.508l-328.304 180.273 328.304 180.281 328.304-180.281zM386.336 891.242l92.664-92.672-333.336-183.039-92.672 92.672zM145.68 566.023l333.336-183.039-92.68-92.68-333.344 183.039zM861.859 196.43l-329.859-181.125v204.445c0 11.047-8.953 20-20 20s-20-8.953-20-20v-204.445l-329.859 181.125v171.344l218.094-119.758c3.023-1.656 6.336-2.469 9.617-2.469 5.18 0 10.305 2.016 14.148 5.859l108 108 108-108c3.844-3.852 8.969-5.859 14.148-5.859 3.281 0 6.594 0.812 9.617 2.469l218.094 119.758zM637.671 290.305l-92.68 92.687 333.336 183.031 92.687-92.672zM809.601 799.648c5.258 0 10.398 2.141 14.141 5.867 3.719 3.719 5.859 8.875 5.859 14.133 0 5.266-2.141 10.422-5.859 14.141-3.719 3.727-8.883 5.859-14.141 5.859-5.281 0-10.422-2.133-14.141-5.859-3.742-3.719-5.859-8.875-5.859-14.141 0-5.258 2.117-10.414 5.859-14.133 3.719-3.727 8.883-5.867 14.141-5.867zM512 306.149c-5.258 0-10.422-2.133-14.141-5.859-3.719-3.734-5.859-8.875-5.859-14.141 0-5.273 2.141-10.414 5.859-14.156 3.719-3.719 8.883-5.844 14.141-5.844s10.422 2.125 14.141 5.844c3.719 3.742 5.859 8.883 5.859 14.156 0 5.266-2.141 10.406-5.859 14.141-3.719 3.727-8.883 5.859-14.141 5.859z" />
<glyph unicode="&#xe915;" glyph-name="check" d="M927.936 687.008l-68.288 68.288c-12.608 12.576-32.96 12.576-45.536 0l-409.44-409.44-194.752 196.16c-12.576 12.576-32.928 12.576-45.536 0l-68.288-68.288c-12.576-12.608-12.576-32.96 0-45.536l285.568-287.488c12.576-12.576 32.96-12.576 45.536 0l500.736 500.768c12.576 12.544 12.576 32.96 0 45.536z" />
<glyph unicode="&#xe916;" d="M362.667 448l-213.333 139.371c0 0 21.333 39.787 21.333 79.616s-21.333 79.68-21.333 79.68l213.333-139.371v-159.296zM362.667 106.667l-213.333 159.296c0 0 21.333 19.925 21.333 59.733s-21.333 79.637-21.333 79.637l213.333-139.371v-159.296zM362.667 277.333l-213.333 159.296c0 0 21.333 19.925 21.333 59.733s-21.333 79.637-21.333 79.637l213.333-139.371v-159.296z" />
<glyph unicode="&#xe917;" d="M375.979 234.667c-4.672 0-9.387 1.515-13.312 4.672l-226.667 170.667c-9.216 7.381-10.688 20.8-3.328 29.995 7.339 9.195 20.8 10.688 29.973 3.328l226.667-170.667c9.216-7.381 10.688-20.8 3.328-29.995-4.203-5.248-10.411-8-16.661-8z" />
<glyph unicode="&#xe918;" d="M896 426.667h-554.667c0 0 21.333-37.163 21.333-90.581s-21.333-80.085-21.333-80.085h554.667c0 0 21.333 21.333 21.333 85.333s-21.333 85.333-21.333 85.333z" />
<glyph unicode="&#xe919;" d="M375.979 405.333c-4.672 0-9.387 1.515-13.312 4.672l-226.667 170.667c-9.216 7.381-10.688 20.8-3.328 29.995 7.339 9.195 20.8 10.709 29.973 3.328l226.667-170.667c9.216-7.381 10.688-20.8 3.328-29.995-4.203-5.248-10.411-8-16.661-8z" />
<glyph unicode="&#xe91a;" d="M896 597.333h-554.667c0 0 21.333-37.163 21.333-90.581s-21.333-80.085-21.333-80.085h554.667c0 0 21.333 21.333 21.333 85.333s-21.333 85.333-21.333 85.333z" />
<glyph unicode="&#xe91b;" d="M396.992 85.333c0 6.251-2.411 12.459-7.68 16.661l-226.667 170.667c-9.173 7.36-22.635 5.845-29.973-3.328-7.36-9.216-5.867-22.635 3.328-29.995l204.523-154.005h56.469z" />
<glyph unicode="&#xe91c;" d="M896 256h-554.667c0 0 21.333-37.163 21.333-90.581s-21.333-80.085-21.333-80.085h554.667c0 0 21.333 21.333 21.333 85.333s-21.333 85.333-21.333 85.333z" />
<glyph unicode="&#xe91d;" d="M896 256h-554.667c0 0 9.408-16.128 15.637-42.667h555.413c-6.293 30.741-16.384 42.667-16.384 42.667z" />
<glyph unicode="&#xe91e;" d="M896 426.667h-554.667c0 0 9.408-16.128 15.637-42.667h555.413c-6.293 30.741-16.384 42.667-16.384 42.667z" />
<glyph unicode="&#xe91f;" d="M448.725 277.333c2.347 9.6 6.379 29.419 6.379 53.333s-4.032 43.733-6.379 53.333h-43.392c0.064-0.192 7.104-27.029 7.104-53.333s-7.061-53.184-7.104-53.333h43.392zM448.725 448c2.347 9.6 6.379 29.419 6.379 53.333s-4.032 43.733-6.379 53.333h-43.392c0.064-0.192 7.104-27.029 7.104-53.333s-7.061-53.184-7.104-53.333h43.392zM448.725 106.667c2.347 9.6 6.379 29.419 6.379 53.333s-4.032 43.733-6.379 53.333h-43.392c0.064-0.192 7.104-27.029 7.104-53.333s-7.061-53.184-7.104-53.333h43.392z" />
<glyph unicode="&#xe920;" d="M912.384 554.667c-6.293 30.741-16.384 42.667-16.384 42.667l-237.995 179.392c0 0-16.661 12.608-39.339 12.608-26.219 0-469.333 0-469.333 0l0.384-0.384c-6.72 0.128-13.397-2.539-17.643-8.405-6.933-9.515-4.821-22.869 4.693-29.781l207.723-159.36c3.435-6.933 8.917-19.627 12.949-36.736h554.944z" />
<glyph unicode="&#xe921;" d="M682.667 618.667l-234.667 170.667h-106.667l234.667-170.667c37.333-26.667 42.667-34.667 42.667-64s0-405.333 0-405.333 0-64-42.667-64c22.528 0 78.464 0 106.667 0 42.667 0 42.667 64 42.667 64s0 384 0 405.333c0 42.667-33.323 54.656-42.667 64z" />
<glyph unicode="&#xe922;" d="M725.333 384v-85.333h-106.667v85.333h106.667zM730.667 405.333h-117.333c-8.832 0-16-7.168-16-16v-96c0-8.832 7.168-16 16-16h117.333c8.832 0 16 7.168 16 16v96c0 8.832-7.168 16-16 16v0z" />
<glyph unicode="&#xe923;" d="M672 352c-5.891 0-10.667-4.776-10.667-10.667s4.776-10.667 10.667-10.667v0c5.891 0 10.667 4.776 10.667 10.667s-4.776 10.667-10.667 10.667v0z" />
<glyph unicode="&#xe924;" d="M672 341.333c-5.888 0-10.667 4.779-10.667 10.667v64c0 5.888 4.779 10.667 10.667 10.667s10.667-4.779 10.667-10.667v-64c0-5.888-4.779-10.667-10.667-10.667z" />
<glyph unicode="&#xe925;" glyph-name="excel" d="M1004.928 827.648h-343.040v-63.488h101.12v-100.437h-101.12v-32h101.12v-100.565h-101.12v-32.896h101.12v-95.104h-101.12v-38.101h101.12v-95.317h-101.12v-38.101h101.12v-95.872h-101.12v-69.931h343.040c5.419 1.621 9.941 8.021 13.568 19.115 3.627 11.179 5.504 20.267 5.504 27.136v703.957c0 5.461-1.877 8.747-5.504 9.899-3.627 1.109-8.149 1.707-13.568 1.707zM960.427 135.851h-164.565v95.787h164.565v-95.872zM960.427 269.739h-164.565v95.36h164.565zM960.427 403.2h-164.565v94.677h164.565v-94.763zM960.427 531.2h-164.565v100.437h164.565v-100.48zM960.427 664.277h-164.565v99.84h164.565v-100.48zM0 843.477v-793.643l604.16-104.491v1005.312l-604.16-107.52zM358.101 243.115c-2.304 6.229-13.141 32.683-32.341 79.488-19.157 46.763-30.72 73.984-34.091 81.749h-1.067l-64.811-154.24-86.613 5.845 102.741 192-94.080 192 88.32 4.651 58.368-150.229h1.152l65.92 157.056 91.264 5.76-108.672-207.787 112-211.968-98.091 5.76z" />
<glyph unicode="&#xe926;" glyph-name="powerpoint" d="M1001.984 789.333h-364.459v-135.936c21.973 16.64 48.299 25.088 79.147 25.088v-132.181h131.157c-0.64-37.077-13.44-68.352-38.443-93.568-24.917-25.259-56.235-38.229-93.355-39.083-28.8 0.853-55.040 9.515-78.037 26.24v-90.837h286.677v-44.587h-286.763v-55.168h286.507v-44.032h-286.677v-99.84h364.501c14.763 0 21.76 7.765 21.76 22.912v639.232c0 14.592-6.997 21.76-21.76 21.76zM737.28 568.064v133.291c37.12-0.853 68.267-13.739 93.355-38.827 25.003-25.088 38.016-56.576 38.656-94.464zM352.256 565.845c-2.261 8.576-5.973 15.232-11.221 20.139-5.12 4.779-12.032 8.277-20.608 10.496-9.6 2.603-19.499 3.84-29.44 3.84l-30.72-0.597v-127.957h1.109c11.136-0.683 22.827-0.683 35.2 0 12.16 0.64 23.68 3.84 34.517 9.6 13.355 9.6 21.333 22.4 23.936 38.997 2.56 16.683 1.664 32.683-2.731 47.403zM0 829.483v-765.696l584.021-100.907v970.24zM435.755 484.437c-16-37.077-39.893-60.8-71.851-71.040-31.957-10.197-66.475-14.165-103.637-11.904v-146.005l-76.843 8.917v401.152l121.984 6.357c22.613 1.408 44.971-1.067 66.816-7.68 21.973-6.485 39.339-19.584 52.181-39.339 12.8-19.669 20.011-42.496 21.76-68.48 1.579-25.984-1.835-50.005-10.411-71.979z" />
<glyph unicode="&#xe927;" glyph-name="word" d="M1023.957 800.725v-706.005c0-6.016-2.133-10.88-6.357-14.763-4.309-4.011-9.429-5.888-15.36-5.888h-365.184v97.92h297.899v44.587h-298.155v54.571h297.899v44.544h-297.685v55.040h297.813v44.032h-297.813v55.168h297.813v44.544h-297.813v54.571h297.813v44.501h-297.813v55.68h297.813v42.411h-297.813v110.635h365.312c6.357 0 11.52-2.048 15.275-6.357 4.48-4.224 6.4-9.387 6.357-15.189zM582.4 932.651v-969.472l-582.4 100.779v765.184l582.4 103.68zM494.507 646.443l-72.917-4.48-46.763-289.493h-1.067c-2.304 13.696-10.88 61.653-26.24 143.659l-27.264 139.221-68.437-3.413-27.392-135.808c-16-79.104-24.917-125.141-27.264-138.069h-0.64l-41.6 266.667-62.72-3.328 67.2-336.341 69.717-4.48 26.24 130.901c15.36 76.8 24.32 121.429 26.24 133.632h1.92c2.603-13.013 10.923-58.624 26.24-136.96l26.24-134.741 75.52-4.48 84.48 377.6z" />
<glyph unicode="&#xe928;" glyph-name="file" d="M917.806 730.924c-22.212 30.292-53.174 65.7-87.178 99.704s-69.412 64.964-99.704 87.178c-51.574 37.82-76.592 42.194-90.924 42.194h-496c-44.112 0-80-35.888-80-80v-864c0-44.112 35.888-80 80-80h736c44.112 0 80 35.888 80 80v624c0 14.332-4.372 39.35-42.194 90.924zM785.374 785.374c30.7-30.7 54.8-58.398 72.58-81.374h-153.954v153.946c22.984-17.78 50.678-41.878 81.374-72.572zM896 16c0-8.672-7.328-16-16-16h-736c-8.672 0-16 7.328-16 16v864c0 8.672 7.328 16 16 16 0 0 495.956 0.002 496 0v-224c0-17.672 14.326-32 32-32h224v-624z" />
<glyph unicode="&#xe929;" glyph-name="acrobat" d="M1006.848 304.299c-30.293 32.427-92.331 51.072-180.224 51.072-46.933 0-101.333-4.693-160.427-15.787-33.365 32.853-66.645 71.253-98.432 116.053-22.613 31.573-42.368 64.853-60.587 97.707 34.688 108.373 51.456 196.693 51.456 260.267 0 71.339-25.728 145.749-99.84 145.749-22.741 0-45.483-13.867-57.6-34.133-33.408-60.075-18.347-191.701 39.125-321.707-21.461-64.853-44.16-126.848-72.533-196.48-24.661-58.709-53.077-119.211-82.048-174.763-166.571-67.584-274.347-146.517-284.459-208.384-4.437-23.339 3.157-44.8 19.499-61.867 5.675-4.693 27.136-23.253 63.147-23.253 110.507 0 226.987 182.613 286.165 292.693 45.44 15.36 90.88 29.312 136.235 43.307 49.835 13.781 99.84 24.875 145.28 32.64 116.693-106.837 219.563-123.733 271.275-123.733 63.659 0 86.357 26.325 93.995 47.872 11.947 27.733 2.987 58.453-10.752 74.24zM947.755 259.328c-4.437-23.211-27.221-38.656-59.136-38.656-8.96 0-16.64 1.579-25.728 3.072-58.027 13.867-112.341 43.349-166.528 89.856 53.333 9.131 98.56 10.667 127.147 10.667 31.573 0 58.88-1.365 77.227-6.144 20.907-4.523 54.187-18.56 46.72-58.88zM626.773 332.16c-39.253-8.107-81.664-17.664-125.611-29.568-34.816-9.515-71.083-20.224-107.52-32.853 19.755 38.485 36.437 75.691 51.541 111.061 18.261 43.52 33.28 88.32 48.427 129.963 14.933-26.027 31.573-52.48 48.213-75.947 27.307-37.12 55.893-72.533 84.48-103.253zM428.373 907.52c6.187 12.373 18.347 18.603 28.928 18.603 31.787 0 37.845-37.035 37.845-66.56 0-49.835-15.104-125.525-40.96-211.925-45.312 120.32-48.427 221.013-25.813 259.883zM261.888 186.581c-77.227-129.835-151.381-210.475-196.821-210.475-8.96 0-16.512 3.2-22.613 7.808-9.131 9.216-13.653 20.139-10.581 32.427 9.088 46.507 95.403 111.488 230.016 170.24z" />
<glyph unicode="&#xe92a;" glyph-name="doc-management" d="M144 0h-80v80h32v-48h48zM934.625 960h-230.625v-64h-256v-32h384v32h-96v32h160v-96h96v-288h-256v192h96v32h-352v-32h224v-224h320v358.625zM928 864v57.375l57.375-57.375zM736 352h96v-32h-96zM352 256h416v-32h-416zM832 256h96v-32h-96zM480 160h384v-32h-384zM928 160h96v-32h-96zM544 32h32v-64h-544v736h368v-176h176v-176h-352v-32h448v32h-64v198.625l-185.375 185.375h-422.625v-800h608v96h224v32h-288zM432 681.375l121.375-121.375h-121.375zM608 832h256v-32h-256zM448 832h96v-32h-96zM304 896h80v-32h-80z" />
<glyph unicode="&#xe92b;" glyph-name="stat" d="M580.267 584.038h-136.533c-9.425 0-17.067-7.642-17.067-17.067v-477.867c0-9.425 7.642-17.067 17.067-17.067h136.533c9.425 0 17.067 7.642 17.067 17.067v477.867c0 9.427-7.642 17.067-17.067 17.067zM563.2 106.172h-102.4v443.733h102.4v-443.733zM989.867 652.305h-136.533c-9.425 0-17.067-7.642-17.067-17.067v-546.133c0-9.425 7.642-17.067 17.067-17.067h136.533c9.425 0 17.067 7.642 17.067 17.067v546.133c0 9.427-7.642 17.067-17.067 17.067zM972.8 106.172h-102.4v512h102.4v-512zM785.067 276.838h-136.533c-9.425 0-17.067-7.642-17.067-17.067v-170.667c0-9.425 7.642-17.067 17.067-17.067h136.533c9.425 0 17.067 7.642 17.067 17.067v170.667c0 9.427-7.642 17.067-17.067 17.067zM768 106.172h-102.4v136.533h102.4v-136.533zM170.667 515.772h-136.533c-9.425 0-17.067-7.642-17.067-17.067v-409.6c0-9.425 7.642-17.067 17.067-17.067h136.533c9.425 0 17.067 7.642 17.067 17.067v409.6c0 9.427-7.642 17.067-17.067 17.067zM153.6 106.172h-102.4v375.467h102.4v-375.467zM375.467 413.372h-136.533c-9.425 0-17.067-7.642-17.067-17.067v-307.2c0-9.425 7.642-17.067 17.067-17.067h136.533c9.425 0 17.067 7.642 17.067 17.067v307.2c0 9.427-7.642 17.067-17.067 17.067zM358.4 106.172h-102.4v273.067h102.4v-273.067zM922.592 943.426c-37.975 0.273-68.981-30.289-69.254-68.265-0.139-19.174 7.735-37.536 21.724-50.652l-141.653-259.806c-12.832 3.552-26.462 2.923-38.912-1.792l-131.774 197.749c25.248 28 23.017 71.168-4.986 96.414s-71.168 23.017-96.414-4.986c-18.549-20.574-22.829-50.317-10.831-75.285l-103.612-86.236c-28.425 20.734-68.019 16.094-90.88-10.65l-86.886 43.452c7.881 36.87-15.622 73.148-52.491 81.026-36.87 7.881-73.148-15.62-81.026-52.491-7.881-36.87 15.62-73.148 52.491-81.026 4.704-1.005 9.502-1.51 14.313-1.508 19.68 0.064 38.362 8.67 51.2 23.586l86.886-43.452c-8.198-36.8 14.989-73.28 51.789-81.478s73.28 14.989 81.478 51.789c3.334 14.965 1.534 30.618-5.114 44.435l103.612 86.238c17.858-13.216 41.171-16.553 62.020-8.875l131.738-197.751c-25.18-28.062-22.842-71.223 5.222-96.403 28.062-25.18 71.223-22.842 96.403 5.222 24.87 27.718 22.938 70.253-4.343 95.601l141.653 259.806c5.44-1.421 11.036-2.155 16.657-2.185 37.975-0.273 68.981 30.289 69.254 68.265s-30.291 68.981-68.265 69.257zM102.4 703.505c-18.852 0-34.133 15.281-34.133 34.133s15.281 34.133 34.133 34.133 34.133-15.281 34.133-34.133-15.281-34.133-34.133-34.133zM307.2 601.105c-18.852 0-34.133 15.281-34.133 34.133s15.281 34.133 34.133 34.133 34.133-15.281 34.133-34.133-15.281-34.133-34.133-34.133zM512 771.772c-18.852 0-34.133 15.281-34.133 34.133s15.281 34.133 34.133 34.133 34.133-15.281 34.133-34.133-15.281-34.133-34.133-34.133zM716.8 464.572c-18.852 0-34.133 15.281-34.133 34.133s15.281 34.133 34.133 34.133 34.133-15.281 34.133-34.133-15.281-34.133-34.133-34.133zM921.6 840.038c-18.852 0-34.133 15.281-34.133 34.133s15.281 34.133 34.133 34.133 34.133-15.281 34.133-34.133-15.281-34.133-34.133-34.133zM1006.933 54.972h-989.867c-9.425 0-17.067-7.642-17.067-17.067v-68.267c0-9.425 7.642-17.067 17.067-17.067h989.867c9.425 0 17.067 7.642 17.067 17.067v68.267c0 9.427-7.642 17.067-17.067 17.067zM989.867-13.295h-955.733v34.133h955.733v-34.133z" />
<glyph unicode="&#xe92c;" glyph-name="registry" d="M992 464h-96c0 26.464-21.536 48-48 48v32h64c35.296 0 64 28.704 64 64v160c0 35.296-28.704 64-64 64h-256c-35.296 0-64-28.704-64-64v-160c0-29.744 20.48-54.576 48-61.728v-2.272c0-8.832-7.184-16-16-16-26.464 0-48-21.536-48-48v-16h-144v80c0 41.632-22.88 77.952-56.672 97.248 34.832 4.8 66.176 24.128 85.984 53.872 3.28 4.912 3.584 11.216 0.8 16.416-2.784 5.216-8.208 8.464-14.112 8.464-26.464 0-48 21.536-48 48v16c0 30.88-10.88 59.968-30.736 83.104l14.256 57.024c1.2 4.784 0.112 9.84-2.912 13.712-3.024 3.888-7.68 6.16-12.608 6.16h-192c-4.928 0-9.584-2.272-12.608-6.16-3.024-3.872-4.112-8.944-2.912-13.712l14.256-57.024c-19.856-23.136-30.736-52.224-30.736-83.104v-16c0-26.464-21.536-48-48-48-5.904 0-11.328-3.248-14.112-8.448s-2.48-11.52 0.8-16.416c19.808-29.728 51.168-49.056 85.984-53.872-33.792-19.312-56.672-55.632-56.672-97.264v-80h-80c-8.832 0-16-7.152-16-16v-480c0-8.848 7.168-16 16-16h960c8.832 0 16 7.152 16 16v480c0 8.848-7.168 16-16 16zM864 464h-160c0 8.832 7.184 16 16 16h128c8.816 0 16-7.168 16-16zM816 512h-64v32h64zM624 608v160c0 17.648 14.352 32 32 32h256c17.648 0 32-14.352 32-32v-160c0-17.648-14.352-32-32-32h-256c-17.648 0-32 14.352-32 32zM608 480c0 8.832 7.184 16 16 16 26.464 0 48 21.536 48 48h48v-32c-26.464 0-48-21.536-48-48h-64zM336 720c0-35.296-28.704-64-64-64s-64 28.704-64 64v32c26.144 0 49.392 12.608 64 32.048 14.608-19.44 37.856-32.048 64-32.048zM224 624h96l-17.744-23.648-18.96 18.96c-3.104 3.12-7.2 4.688-11.296 4.688s-8.192-1.568-11.312-4.688l-18.96-18.96zM347.504 912l-8-32h-135.008l-8 32zM176 768v16c0 23.92 8.752 46.368 24.592 64h142.816c15.84-17.632 24.592-40.080 24.592-64v-16c0-33.456 20.64-62.176 49.84-74.096-16.384-13.984-37.376-21.904-59.52-21.904h-3.296c8.192 14.144 12.976 30.512 12.976 48v48c0 8.848-7.168 16-16 16h-16c-26.464 0-48 21.536-48 48 0 8.848-7.168 16-16 16s-16-7.152-16-16c0-26.464-21.536-48-48-48h-16c-8.832 0-16-7.152-16-16v-48c0-17.488 4.784-33.856 12.992-48h-3.296c-22.144 0-43.152 7.92-59.536 21.904 29.2 11.92 49.84 40.64 49.84 74.096zM144 544c0 31.888 18.88 59.248 45.936 72.096l37.264-49.696c2.784-3.712 7.040-6.032 11.664-6.352 4.656-0.448 9.184 1.36 12.448 4.64l20.688 20.688 20.688-20.688c3.008-3.024 7.088-4.688 11.312-4.688 0.368 0 0.752 0.016 1.136 0.048 4.624 0.336 8.88 2.64 11.664 6.352l37.264 49.696c27.056-12.848 45.936-40.208 45.936-72.096v-80h-32v96h-32v-96h-128v96h-32v-96h-32zM976-16h-928v448h928zM512 16c105.872 0 192 86.128 192 192s-86.128 192-192 192-192-86.128-192-192 86.128-192 192-192zM512 368c88.224 0 160-71.776 160-160s-71.776-160-160-160-160 71.776-160 160 71.776 160 160 160zM464 160v-64c0-8.848 7.168-16 16-16h64c8.832 0 16 7.152 16 16v64h64c8.832 0 16 7.152 16 16v64c0 8.848-7.168 16-16 16h-64v64c0 8.848-7.168 16-16 16h-64c-8.832 0-16-7.152-16-16v-64h-64c-8.832 0-16-7.152-16-16v-64c0-8.848 7.168-16 16-16zM416 224h64c8.832 0 16 7.152 16 16v64h32v-64c0-8.848 7.168-16 16-16h64v-32h-64c-8.832 0-16-7.152-16-16v-64h-32v64c0 8.848-7.168 16-16 16h-64z" />
<glyph unicode="&#xe92d;" glyph-name="link" d="M725.333 384v-256c0-11.776-4.736-22.4-12.501-30.165s-18.389-12.501-30.165-12.501h-469.333c-11.776 0-22.4 4.736-30.165 12.501s-12.501 18.389-12.501 30.165v469.333c0 11.776 4.736 22.4 12.501 30.165s18.389 12.501 30.165 12.501h256c23.552 0 42.667 19.115 42.667 42.667s-19.115 42.667-42.667 42.667h-256c-35.328 0-67.413-14.379-90.496-37.504s-37.504-55.168-37.504-90.496v-469.333c0-35.328 14.379-67.413 37.504-90.496s55.168-37.504 90.496-37.504h469.333c35.328 0 67.413 14.379 90.496 37.504s37.504 55.168 37.504 90.496v256c0 23.552-19.115 42.667-42.667 42.667s-42.667-19.115-42.667-42.667zM456.832 311.168l396.501 396.501v-153.003c0-23.552 19.115-42.667 42.667-42.667s42.667 19.115 42.667 42.667v256c0 5.803-1.152 11.307-3.243 16.341s-5.163 9.728-9.216 13.781c-0.043 0.043-0.043 0.043-0.085 0.085-3.925 3.925-8.619 7.083-13.781 9.216-5.035 2.091-10.539 3.243-16.341 3.243h-256c-23.552 0-42.667-19.115-42.667-42.667s19.115-42.667 42.667-42.667h153.003l-396.501-396.501c-16.683-16.683-16.683-43.691 0-60.331s43.691-16.683 60.331 0z" />
<glyph unicode="&#xe92e;" glyph-name="expand" d="M1018.996 954.992c-6.656 6.674-17.476 6.674-24.132 0l-324.265-324.263c-6.674-6.674-6.674-17.46 0-24.132 3.328-3.328 7.698-5 12.066-5 4.37 0 8.738 1.672 12.066 5l324.265 324.263c6.672 6.674 6.672 17.46 0 24.132zM1006.93 959.994h-221.866c-9.42 0-17.066-7.646-17.066-17.066s7.646-17.066 17.066-17.066h204.798v-204.798c0-9.42 7.646-17.066 17.066-17.066s17.066 7.646 17.066 17.066v221.862c0.002 9.422-7.644 17.068-17.064 17.068zM353.401 289.399c-6.656 6.674-17.476 6.674-24.132 0l-324.265-324.265c-6.672-6.674-6.672-17.46 0-24.132 3.328-3.328 7.698-5 12.066-5 4.37 0 8.738 1.672 12.066 5l324.265 324.263c6.672 6.674 6.672 17.46 0 24.134zM238.936-29.866h-204.798v204.798c0 9.42-7.646 17.066-17.066 17.066s-17.066-7.646-17.066-17.066v-221.864c0-9.42 7.646-17.066 17.066-17.066h221.864c9.42 0 17.066 7.646 17.066 17.066s-7.646 17.066-17.066 17.066zM631.465 584.529h-238.93c-9.42 0-17.066-7.646-17.066-17.066v-238.932c0-9.42 7.646-17.066 17.066-17.066h238.932c9.42 0 17.066 7.646 17.066 17.066v238.932c0 9.422-7.646 17.066-17.068 17.066zM614.399 345.599h-204.798v204.798h204.798v-204.798zM1018.996-34.866l-324.263 324.265c-6.656 6.674-17.476 6.674-24.132 0-6.674-6.674-6.674-17.46 0-24.132l324.263-324.263c3.328-3.328 7.698-5 12.066-5 4.37 0 8.738 1.672 12.066 5 6.672 6.672 6.672 17.458 0 24.13zM1006.93 192c-9.42 0-17.066-7.646-17.066-17.066v-204.798h-204.798c-9.42 0-17.066-7.646-17.066-17.066s7.646-17.066 17.066-17.066h221.864c9.42 0 17.066 7.646 17.066 17.066v221.862c0 9.422-7.646 17.068-17.066 17.068zM353.401 630.729l-324.263 324.265c-6.656 6.672-17.476 6.672-24.132 0-6.672-6.674-6.672-17.46 0-24.132l324.263-324.263c3.328-3.328 7.698-5 12.066-5 4.37 0 8.738 1.672 12.066 5 6.672 6.672 6.672 17.458 0 24.13zM238.936 959.994h-221.866c-9.42 0-17.066-7.646-17.066-17.066v-221.866c0-9.42 7.646-17.066 17.066-17.066s17.066 7.646 17.066 17.066v204.798h204.798c9.42 0 17.066 7.646 17.066 17.066s-7.644 17.068-17.064 17.068z" />
<glyph unicode="&#xe92f;" glyph-name="focus" d="M1018.996 954.992c-6.656 6.674-17.476 6.674-24.132 0l-324.265-324.263c-6.674-6.674-6.674-17.46 0-24.132 3.328-3.328 7.698-5 12.066-5 4.37 0 8.738 1.672 12.066 5l324.265 324.263c6.672 6.674 6.672 17.46 0 24.132zM904.531 635.729h-204.798v204.798c0 9.42-7.646 17.066-17.066 17.066s-17.066-7.646-17.066-17.066v-221.864c0-9.42 7.646-17.066 17.066-17.066h221.864c9.42 0 17.066 7.646 17.066 17.066s-7.646 17.066-17.066 17.066zM353.401 289.399c-6.656 6.674-17.476 6.674-24.132 0l-324.265-324.265c-6.672-6.674-6.672-17.46 0-24.132 3.328-3.328 7.698-5 12.066-5 4.37 0 8.738 1.672 12.066 5l324.265 324.263c6.672 6.674 6.672 17.46 0 24.134zM341.335 294.399h-221.866c-9.42 0-17.066-7.646-17.066-17.066s7.646-17.066 17.066-17.066h204.798v-204.798c0-9.42 7.646-17.066 17.066-17.066s17.066 7.646 17.066 17.066v221.862c0.002 9.422-7.644 17.068-17.064 17.068zM631.465 584.529h-238.93c-9.42 0-17.066-7.646-17.066-17.066v-238.932c0-9.42 7.646-17.066 17.066-17.066h238.932c9.42 0 17.066 7.646 17.066 17.066v238.932c0 9.422-7.646 17.066-17.068 17.066zM614.399 345.599h-204.798v204.798h204.798v-204.798zM1018.996-34.866l-324.263 324.265c-6.656 6.674-17.476 6.674-24.132 0-6.674-6.674-6.674-17.46 0-24.132l324.263-324.263c3.328-3.328 7.698-5 12.066-5 4.37 0 8.738 1.672 12.066 5 6.672 6.672 6.672 17.458 0 24.13zM904.531 294.399h-221.864c-9.42 0-17.066-7.646-17.066-17.066v-221.866c0-9.42 7.646-17.066 17.066-17.066s17.066 7.646 17.066 17.066v204.798h204.798c9.42 0 17.066 7.646 17.066 17.066s-7.646 17.068-17.066 17.068zM353.401 630.729l-324.263 324.265c-6.656 6.672-17.476 6.672-24.132 0-6.672-6.674-6.672-17.46 0-24.132l324.263-324.263c3.328-3.328 7.698-5 12.066-5 4.37 0 8.738 1.672 12.066 5 6.672 6.672 6.672 17.458 0 24.13zM341.335 857.595c-9.42 0-17.066-7.646-17.066-17.066v-204.798h-204.798c-9.42 0-17.066-7.646-17.066-17.066s7.646-17.066 17.066-17.066h221.864c9.42 0 17.066 7.646 17.066 17.066v221.862c0 9.422-7.646 17.068-17.066 17.068z" />
<glyph unicode="&#xe930;" glyph-name="check-list" d="M844.538 960h-665.076c-26.224 0-47.558-21.334-47.558-47.558v-307.776c0-8.284 6.714-15 15-15s15 6.716 15 15v307.776c0 9.682 7.876 17.558 17.558 17.558h665.074c9.682 0 17.558-7.876 17.558-17.558v-928.882c0-9.682-7.878-17.558-17.558-17.558h-665.074c-9.682 0-17.558 7.878-17.558 17.558v561.106c0 8.284-6.714 15-15 15s-15-6.716-15-15v-561.108c0-26.224 21.334-47.558 47.558-47.558h665.074c26.224 0 47.558 21.336 47.558 47.558v928.884c0.002 26.224-21.332 47.558-47.556 47.558zM660.452 898.49h-296.904c-8.286 0-15-6.716-15-15v-35.284h-127.644c-8.286 0-15-6.716-15-15v-808.206c0-8.284 6.714-15 15-15h582.192c8.284 0 15 6.716 15 15v284.646c0 8.284-6.716 15-15 15-8.286 0-15-6.716-15-15v-269.646h-552.192v778.208h112.644v-35.252c0-8.284 6.714-15 15-15h296.902c8.286 0 15 6.716 15 15v35.252h112.644v-448.56c0-8.284 6.714-15 15-15 8.284 0 15 6.716 15 15v463.56c0 8.284-6.716 15-15 15h-127.644v35.282c0.002 8.284-6.714 15-14.998 15zM645.452 797.956h-266.904v70.534h266.902v-70.534zM490.008 681.458c0 23.506-19.126 42.632-42.63 42.632h-99.702c-23.506 0-42.63-19.126-42.63-42.632v-99.7c0-23.506 19.126-42.632 42.63-42.632h99.702c23.506 0 42.63 19.126 42.63 42.632zM460.008 581.756c0-6.964-5.666-12.632-12.63-12.632h-99.702c-6.964 0-12.63 5.666-12.63 12.632v99.7c0 6.964 5.666 12.632 12.63 12.632h99.702c6.964 0 12.63-5.666 12.63-12.632zM411.032 659.63l-22.496-24.226-4.898 4.9c-5.858 5.856-15.356 5.86-21.212 0.002-5.86-5.858-5.86-15.356-0.002-21.212l15.906-15.91c2.816-2.816 6.632-4.394 10.608-4.394 0.092 0 0.186 0 0.278 0.002 4.074 0.076 7.942 1.804 10.714 4.79l33.088 35.634c5.636 6.072 5.286 15.562-0.786 21.2-6.074 5.638-15.566 5.284-21.2-0.786zM553.962 677.498h71.306c8.286 0 15 6.716 15 15s-6.714 15-15 15h-71.306c-8.286 0-15-6.716-15-15s6.716-15 15-15zM553.962 555.714h71.306c8.286 0 15 6.716 15 15s-6.714 15-15 15h-71.306c-8.286 0-15-6.716-15-15s6.716-15 15-15zM711.954 646.606h-157.992c-8.286 0-15-6.716-15-15s6.714-15 15-15h157.992c8.286 0 15 6.716 15 15s-6.714 15-15 15zM490.008 456.014c0 23.506-19.126 42.632-42.63 42.632h-99.702c-23.506 0-42.63-19.126-42.63-42.632v-99.7c0-23.506 19.126-42.632 42.63-42.632h99.702c23.506 0 42.63 19.126 42.63 42.632zM460.008 356.314c0-6.964-5.666-12.632-12.63-12.632h-99.702c-6.964 0-12.63 5.666-12.63 12.632v99.7c0 6.964 5.666 12.632 12.63 12.632h99.702c6.964 0 12.63-5.666 12.63-12.632zM411.032 434.188l-22.496-24.226-4.898 4.9c-5.858 5.858-15.356 5.86-21.212 0.002-5.86-5.858-5.86-15.356-0.002-21.214l15.906-15.908c2.816-2.816 6.632-4.394 10.608-4.394 0.092 0 0.186 0 0.278 0.002 4.074 0.076 7.942 1.804 10.714 4.79l33.088 35.634c5.636 6.072 5.286 15.562-0.786 21.2-6.074 5.636-15.566 5.282-21.2-0.786zM553.962 452.056h71.306c8.286 0 15 6.716 15 15s-6.714 15-15 15h-71.306c-8.286 0-15-6.716-15-15s6.716-15 15-15zM553.962 330.272h71.306c8.286 0 15 6.716 15 15s-6.714 15-15 15h-71.306c-8.286 0-15-6.716-15-15s6.716-15 15-15zM711.954 421.164h-157.992c-8.286 0-15-6.716-15-15s6.714-15 15-15h157.992c8.286 0 15 6.716 15 15 0 8.286-6.714 15-15 15zM447.376 273.204h-99.702c-23.506 0-42.63-19.126-42.63-42.632v-99.7c0-23.506 19.126-42.632 42.63-42.632h99.702c23.506 0 42.63 19.126 42.63 42.632v99.7c0.002 23.506-19.124 42.632-42.63 42.632zM460.008 130.872c0-6.964-5.666-12.632-12.63-12.632h-99.702c-6.964 0-12.63 5.668-12.63 12.632v99.7c0 6.964 5.666 12.632 12.63 12.632h99.702c6.964 0 12.63-5.666 12.63-12.632zM411.032 208.746l-22.496-24.226-4.898 4.9c-5.858 5.856-15.356 5.86-21.212 0-5.86-5.858-5.86-15.356-0.002-21.212l15.906-15.91c2.816-2.816 6.632-4.394 10.608-4.394 0.092 0 0.186 0 0.278 0.002 4.074 0.076 7.942 1.804 10.714 4.79l33.088 35.634c5.636 6.072 5.286 15.562-0.786 21.2-6.074 5.638-15.566 5.284-21.2-0.784zM553.962 226.614h71.306c8.286 0 15 6.716 15 15s-6.714 15-15 15h-71.306c-8.286 0-15-6.716-15-15s6.716-15 15-15zM553.962 134.83c-8.286 0-15-6.716-15-15s6.714-15 15-15h71.306c8.286 0 15 6.716 15 15s-6.714 15-15 15zM726.954 180.722c0 8.284-6.714 15-15 15h-157.992c-8.286 0-15-6.716-15-15s6.714-15 15-15h157.992c8.286 0 15 6.716 15 15z" />
<glyph unicode="&#xe956;" glyph-name="display" d="M0 896v-640h1024v640h-1024zM960 320h-896v512h896v-512zM672 192h-320l-32-128-64-64h512l-64 64z" />
<glyph unicode="&#xe96c;" glyph-name="conversation" horiz-adv-x="1152" d="M1088 58.834c0-45.5 26.028-84.908 64-104.184v-15.938c-10.626-1.454-21.472-2.224-32.5-2.224-68.008 0-129.348 28.528-172.722 74.264-26.222-6.982-54.002-10.752-82.778-10.752-159.058 0-288 114.616-288 256s128.942 256 288 256c159.058 0 288-114.616 288-256 0-55.348-19.764-106.592-53.356-148.466-6.824-14.824-10.644-31.312-10.644-48.7zM512 960c278.458 0 504.992-180.614 511.836-405.52-49.182 21.92-103.586 33.52-159.836 33.52-95.56 0-185.816-33.446-254.138-94.178-70.846-62.972-109.862-147.434-109.862-237.822 0-44.672 9.544-87.888 27.736-127.788-5.228-0.126-10.468-0.212-15.736-0.212-27.156 0-53.81 1.734-79.824 5.044-109.978-109.978-241.25-129.7-368.176-132.596v26.916c68.536 33.578 128 94.74 128 164.636 0 9.754-0.758 19.33-2.164 28.696-115.796 76.264-189.836 192.754-189.836 323.304 0 229.75 229.23 416 512 416z" />
<glyph unicode="&#xe991;" glyph-name="wrench" d="M1002.934 142.124l-460.552 394.76c21.448 40.298 33.618 86.282 33.618 135.116 0 159.058-128.942 288-288 288-29.094 0-57.172-4.332-83.646-12.354l166.39-166.39c24.89-24.89 24.89-65.62 0-90.51l-101.49-101.49c-24.89-24.89-65.62-24.89-90.51 0l-166.39 166.39c-8.022-26.474-12.354-54.552-12.354-83.646 0-159.058 128.942-288 288-288 48.834 0 94.818 12.17 135.116 33.62l394.76-460.552c22.908-26.724 62.016-28.226 86.904-3.338l101.492 101.492c24.888 24.888 23.386 63.994-3.338 86.902z" />
<glyph unicode="&#xe9ca;" glyph-name="earth" d="M512 960c-282.77 0-512-229.23-512-512s229.23-512 512-512 512 229.23 512 512-229.23 512-512 512zM512-0.002c-62.958 0-122.872 13.012-177.23 36.452l233.148 262.29c5.206 5.858 8.082 13.422 8.082 21.26v96c0 17.674-14.326 32-32 32-112.99 0-232.204 117.462-233.374 118.626-6 6.002-14.14 9.374-22.626 9.374h-128c-17.672 0-32-14.328-32-32v-192c0-12.122 6.848-23.202 17.69-28.622l110.31-55.156v-187.886c-116.052 80.956-192 215.432-192 367.664 0 68.714 15.49 133.806 43.138 192h116.862c8.488 0 16.626 3.372 22.628 9.372l128 128c6 6.002 9.372 14.14 9.372 22.628v77.412c40.562 12.074 83.518 18.588 128 18.588 70.406 0 137.004-16.26 196.282-45.2-4.144-3.502-8.176-7.164-12.046-11.036-36.266-36.264-56.236-84.478-56.236-135.764s19.97-99.5 56.236-135.764c36.434-36.432 85.218-56.264 135.634-56.26 3.166 0 6.342 0.080 9.518 0.236 13.814-51.802 38.752-186.656-8.404-372.334-0.444-1.744-0.696-3.488-0.842-5.224-81.324-83.080-194.7-134.656-320.142-134.656z" />
<glyph unicode="&#xea1c;" glyph-name="play" d="M192 832l640-384-640-384z" />
<glyph unicode="&#xea1d;" glyph-name="pause" d="M128 832h320v-768h-320zM576 832h320v-768h-320z" />
<glyph unicode="&#xea26;" glyph-name="volume-high" horiz-adv-x="1088" d="M890.040 37.96c-12.286 0-24.566 4.686-33.942 14.056-18.744 18.746-18.744 49.136 0 67.882 87.638 87.642 135.904 204.16 135.904 328.1 0 123.938-48.266 240.458-135.904 328.098-18.744 18.746-18.744 49.138 0 67.882s49.138 18.744 67.882 0c105.77-105.772 164.022-246.4 164.022-395.98s-58.252-290.208-164.022-395.98c-9.372-9.372-21.656-14.058-33.94-14.058zM719.53 128.47c-12.286 0-24.566 4.686-33.942 14.056-18.744 18.744-18.744 49.136 0 67.882 131.006 131.006 131.006 344.17 0 475.176-18.744 18.746-18.744 49.138 0 67.882 18.744 18.742 49.138 18.744 67.882 0 81.594-81.59 126.53-190.074 126.53-305.466 0-115.39-44.936-223.876-126.53-305.47-9.372-9.374-21.656-14.060-33.94-14.060v0zM549.020 218.98c-12.286 0-24.568 4.686-33.942 14.058-18.746 18.746-18.746 49.134 0 67.88 81.1 81.1 81.1 213.058 0 294.156-18.746 18.746-18.746 49.138 0 67.882s49.136 18.744 67.882 0c118.53-118.53 118.53-311.392 0-429.922-9.372-9.368-21.656-14.054-33.94-14.054zM416.006 0c-8.328 0-16.512 3.25-22.634 9.374l-246.626 246.626h-114.746c-17.672 0-32 14.326-32 32v320c0 17.672 14.328 32 32 32h114.746l246.626 246.628c9.154 9.154 22.916 11.89 34.874 6.936 11.958-4.952 19.754-16.622 19.754-29.564v-832c0-12.944-7.796-24.612-19.754-29.564-3.958-1.64-8.118-2.436-12.24-2.436z" />
<glyph unicode="&#xea27;" glyph-name="volume-medium" d="M719.53 128.47c-12.286 0-24.566 4.686-33.942 14.056-18.744 18.744-18.744 49.136 0 67.882 131.006 131.006 131.006 344.17 0 475.176-18.744 18.746-18.744 49.138 0 67.882 18.744 18.742 49.138 18.744 67.882 0 81.594-81.59 126.53-190.074 126.53-305.466 0-115.39-44.936-223.876-126.53-305.47-9.372-9.374-21.656-14.060-33.94-14.060v0zM549.020 218.98c-12.286 0-24.566 4.686-33.942 14.058-18.746 18.746-18.746 49.134 0 67.88 81.1 81.1 81.1 213.058 0 294.156-18.746 18.746-18.746 49.138 0 67.882s49.136 18.744 67.882 0c118.53-118.53 118.53-311.392 0-429.922-9.372-9.368-21.656-14.054-33.94-14.054zM416.006 0c-8.328 0-16.512 3.25-22.634 9.374l-246.626 246.626h-114.746c-17.672 0-32 14.326-32 32v320c0 17.672 14.328 32 32 32h114.746l246.626 246.628c9.154 9.154 22.916 11.89 34.874 6.936 11.958-4.952 19.754-16.622 19.754-29.564v-832c0-12.944-7.796-24.612-19.754-29.564-3.958-1.64-8.118-2.436-12.24-2.436z" />
<glyph unicode="&#xea28;" glyph-name="volume-low" d="M549.020 218.98c-12.286 0-24.566 4.686-33.942 14.058-18.746 18.746-18.746 49.134 0 67.88 81.1 81.1 81.1 213.058 0 294.156-18.746 18.746-18.746 49.138 0 67.882s49.136 18.744 67.882 0c118.53-118.53 118.53-311.392 0-429.922-9.372-9.368-21.656-14.054-33.94-14.054zM416.006 0c-8.328 0-16.512 3.25-22.634 9.374l-246.626 246.626h-114.746c-17.672 0-32 14.326-32 32v320c0 17.672 14.328 32 32 32h114.746l246.626 246.628c9.154 9.154 22.916 11.89 34.874 6.936 11.958-4.952 19.754-16.622 19.754-29.564v-832c0-12.944-7.796-24.612-19.754-29.564-3.958-1.64-8.118-2.436-12.24-2.436z" />
<glyph unicode="&#xea29;" glyph-name="volume-none" d="M416.006 0c-8.328 0-16.512 3.25-22.634 9.374l-246.626 246.626h-114.746c-17.672 0-32 14.326-32 32v320c0 17.672 14.328 32 32 32h114.746l246.626 246.628c9.154 9.154 22.916 11.89 34.874 6.936 11.958-4.952 19.754-16.622 19.754-29.564v-832c0-12.944-7.796-24.612-19.754-29.564-3.958-1.64-8.118-2.436-12.24-2.436z" />
<glyph unicode="&#xea2a;" glyph-name="volume-mute" d="M960 340.852v-84.852h-84.852l-107.148 107.148-107.148-107.148h-84.852v84.852l107.148 107.148-107.148 107.148v84.852h84.852l107.148-107.148 107.148 107.148h84.852v-84.852l-107.148-107.148 107.148-107.148zM416.006 0c-8.328 0-16.512 3.25-22.634 9.374l-246.626 246.626h-114.746c-17.672 0-32 14.326-32 32v320c0 17.672 14.328 32 32 32h114.746l246.626 246.628c9.154 9.154 22.916 11.89 34.874 6.936 11.958-4.952 19.754-16.622 19.754-29.564v-832c0-12.944-7.796-24.612-19.754-29.564-3.958-1.64-8.118-2.436-12.24-2.436z" />
<glyph unicode="&#xea2e;" glyph-name="update" d="M889.68 793.68c-93.608 102.216-228.154 166.32-377.68 166.32-282.77 0-512-229.23-512-512h96c0 229.75 186.25 416 416 416 123.020 0 233.542-53.418 309.696-138.306l-149.696-149.694h352v352l-134.32-134.32zM928 448c0-229.75-186.25-416-416-416-123.020 0-233.542 53.418-309.694 138.306l149.694 149.694h-352v-352l134.32 134.32c93.608-102.216 228.154-166.32 377.68-166.32 282.77 0 512 229.23 512 512h-96z" />
<glyph unicode="&#xea5b;" glyph-name="filter" d="M512 960c-282.77 0-512-71.634-512-160v-96l384-384v-320c0-35.346 57.306-64 128-64 70.692 0 128 28.654 128 64v320l384 384v96c0 88.366-229.23 160-512 160zM94.384 821.176c23.944 13.658 57.582 26.62 97.278 37.488 87.944 24.076 201.708 37.336 320.338 37.336 118.628 0 232.394-13.26 320.338-37.336 39.696-10.868 73.334-23.83 97.28-37.488 15.792-9.006 24.324-16.624 28.296-21.176-3.972-4.552-12.506-12.168-28.296-21.176-23.946-13.658-57.584-26.62-97.28-37.488-87.942-24.076-201.708-37.336-320.338-37.336s-232.394 13.26-320.338 37.336c-39.696 10.868-73.334 23.83-97.278 37.488-15.792 9.008-24.324 16.624-28.298 21.176 3.974 4.552 12.506 12.168 28.298 21.176z" />
<glyph unicode="&#xea80;" glyph-name="tag" horiz-adv-x="1280" d="M832 224l96-96 320 320-320 320-96-96 224-224zM448 672l-96 96-320-320 320-320 96 96-224 224zM701.298 809.481l69.468-18.944-191.987-704.026-69.468 18.944 191.987 704.026z" />
</font>
</defs>
</svg>
